<svg xmlns="http://www.w3.org/2000/svg" viewBox="0 0 900 420">
<defs><filter id="g"><feGaussianBlur stdDeviation="7" result="b"/><feMerge><feMergeNode in="b"/><feMergeNode in="SourceGraphic"/></feMerge></filter></defs>
<path d="M86 242 C135 205 193 184 252 176 C309 167 352 126 413 129 C466 131 500 172 559 169 C632 166 677 186 745 216 C786 234 806 261 790 287 C775 311 734 318 695 312 C651 305 626 324 581 328 C534 332 493 310 452 315 C395 323 356 347 300 341 C247 335 217 303 167 299 C126 295 85 278 86 242 Z" fill="#03070b" stroke="#0066ff" stroke-width="8" filter="url(#g)"/></svg>