<svg xmlns="http://www.w3.org/2000/svg" viewBox="0 0 600 420"><defs><linearGradient id="s" x2="0" y2="1"><stop stop-color="#8fd2e7"/><stop offset="1" stop-color="#f2d6a2"/></linearGradient></defs><rect width="600" height="420" fill="url(#s)"/><path d="M0 330Q130 270 250 330T600 320V420H0Z" fill="#2b6985"/><path d="M120 330 150 150l55-60 55 60 25 180Z" fill="#755038" stroke="#35251e" stroke-width="8"/><path d="M160 155h90M175 120h60M205 90V55" stroke="#35251e" stroke-width="8"/><path d="M205 55q45 18 70 5-30 40-70 20Z" fill="#4a1762"/><path d="M335 325 365 195l45-45 48 45 25 130Z" fill="#72513a" stroke="#35251e" stroke-width="8"/><circle cx="205" cy="210" r="26" fill="#151119"/><path d="M40 345c110-65 235-55 340 0" fill="none" stroke="#d8bd8a" stroke-width="18"/></svg>