<svg xmlns="http://www.w3.org/2000/svg" viewBox="130 260 420 320" role="img" aria-label="VectisVerse V"><defs><linearGradient id="c" x1="0" y1="0" x2="0" y2="1"><stop offset="0" stop-color="#fff"/><stop offset=".16" stop-color="#cfd5dc"/><stop offset=".34" stop-color="#fff"/><stop offset=".54" stop-color="#7e8791"/><stop offset=".72" stop-color="#2c333b"/><stop offset=".86" stop-color="#dfe4e8"/><stop offset="1" stop-color="#707984"/></linearGradient></defs><path d="M 261.5,285.0 L 274.0,284.5 L 276.5,287.0 L 336.0,420.5 L 359.5,380.0 L 409.0,285.5 L 521.5,286.0 L 495.5,328.0 L 373.0,551.5 L 337.0,549.5 L 301.0,551.5 L 297.5,549.0 L 275.5,505.0 L 231.5,428.0 L 203.5,374.0 L 169.5,315.0 L 150.5,287.0 L 151.0,285.5 L 261.5,285.0 Z" fill="#06162d" stroke="#00cfff" stroke-width="11" stroke-linejoin="miter"/><path d="M 261.5,285.0 L 274.0,284.5 L 276.5,287.0 L 336.0,420.5 L 359.5,380.0 L 409.0,285.5 L 521.5,286.0 L 495.5,328.0 L 373.0,551.5 L 337.0,549.5 L 301.0,551.5 L 297.5,549.0 L 275.5,505.0 L 231.5,428.0 L 203.5,374.0 L 169.5,315.0 L 150.5,287.0 L 151.0,285.5 L 261.5,285.0 Z" fill="url(#c)" stroke="#243341" stroke-width="5" stroke-linejoin="miter"/><path d="M 261.5,285.0 L 274.0,284.5 L 276.5,287.0 L 336.0,420.5 L 359.5,380.0 L 409.0,285.5 L 521.5,286.0 L 495.5,328.0 L 373.0,551.5 L 337.0,549.5 L 301.0,551.5 L 297.5,549.0 L 275.5,505.0 L 231.5,428.0 L 203.5,374.0 L 169.5,315.0 L 150.5,287.0 L 151.0,285.5 L 261.5,285.0 Z" fill="none" stroke="#e9fbff" stroke-width="1.5" opacity=".76" stroke-linejoin="miter"/></svg>