<svg xmlns="http://www.w3.org/2000/svg" viewBox="0 0 2400 800" role="img" aria-label="VectisVerse"><defs><linearGradient id="c" x1="0" y1="0" x2="0" y2="1"><stop offset="0" stop-color="#fff"/><stop offset=".16" stop-color="#cfd5dc"/><stop offset=".34" stop-color="#fff"/><stop offset=".54" stop-color="#7e8791"/><stop offset=".72" stop-color="#2c333b"/><stop offset=".86" stop-color="#dfe4e8"/><stop offset="1" stop-color="#707984"/></linearGradient><path id="w" d="M 1732.5,185.0 L 1735.5,218.0 L 1745.0,221.5 L 1749.0,229.5 L 1828.5,232.0 L 1751.0,234.5 L 1742.0,245.5 L 1735.5,246.0 L 1733.0,278.5 L 1730.5,248.0 L 1718.0,247.5 L 1701.5,272.0 L 1655.5,351.0 L 1801.0,351.5 L 1803.5,353.0 L 1774.0,402.5 L 1717.5,405.0 L 1764.0,406.5 L 1765.5,408.0 L 1742.0,453.5 L 1738.0,455.5 L 1695.0,456.5 L 1681.5,460.0 L 1751.0,461.5 L 1752.5,463.0 L 1748.5,471.0 L 1725.0,511.5 L 1576.5,511.0 L 1576.5,506.0 L 1649.0,361.5 L 1627.5,396.0 L 1623.5,406.0 L 1594.5,454.0 L 1495.0,631.5 L 1377.0,631.5 L 1375.5,630.0 L 1275.5,450.0 L 1239.5,389.0 L 1178.5,275.0 L 1156.5,240.0 L 1157.0,236.5 L 1315.0,236.5 L 1437.0,454.5 L 1576.0,236.5 L 1710.0,236.5 L 1711.0,234.5 L 1703.0,233.5 L 1637.5,232.0 L 1716.0,229.5 L 1720.0,221.5 L 1730.5,217.0 L 1732.5,185.0 Z M 261.5,285.0 L 274.0,284.5 L 276.5,287.0 L 336.0,420.5 L 359.5,380.0 L 409.0,285.5 L 521.5,286.0 L 495.5,328.0 L 373.0,551.5 L 337.0,549.5 L 301.0,551.5 L 297.5,549.0 L 275.5,505.0 L 231.5,428.0 L 203.5,374.0 L 169.5,315.0 L 150.5,287.0 L 151.0,285.5 L 261.5,285.0 Z M 494.5,352.0 L 645.5,352.0 L 643.5,359.0 L 617.0,402.5 L 566.5,405.0 L 604.0,406.5 L 605.5,408.0 L 579.0,455.5 L 533.0,456.5 L 522.5,459.0 L 552.0,461.5 L 595.0,460.5 L 597.0,462.5 L 644.5,370.0 L 665.0,352.5 L 799.0,351.5 L 801.5,354.0 L 774.0,402.5 L 696.0,402.5 L 666.5,460.0 L 667.0,461.5 L 765.0,460.5 L 766.5,464.0 L 739.0,510.5 L 606.0,510.5 L 589.5,485.0 L 597.0,463.5 L 571.0,510.5 L 417.0,511.5 L 415.5,509.0 L 418.5,502.0 L 494.5,352.0 Z M 805.5,352.0 L 969.0,351.5 L 970.5,354.0 L 946.0,401.5 L 905.0,402.5 L 903.5,404.0 L 857.0,511.5 L 783.0,523.5 L 784.5,514.0 L 807.5,468.0 L 835.5,403.0 L 833.0,401.5 L 784.5,402.0 L 784.5,396.0 L 805.5,352.0 Z M 976.5,352.0 L 1038.0,351.5 L 1039.5,353.0 L 1029.5,382.0 L 997.5,459.0 L 973.0,510.5 L 909.0,511.5 L 912.5,497.0 L 976.5,352.0 Z M 1062.5,352.0 L 1206.0,351.5 L 1207.5,353.0 L 1181.0,401.5 L 1113.5,405.0 L 1165.0,406.5 L 1179.5,425.0 L 1178.5,431.0 L 1172.5,441.0 L 1169.5,452.0 L 1153.5,487.0 L 1126.0,510.5 L 982.0,510.5 L 986.5,496.0 L 1002.5,462.0 L 1005.0,460.5 L 1085.0,461.5 L 1099.5,459.0 L 1100.0,455.5 L 1028.0,455.5 L 1011.5,436.0 L 1041.5,370.0 L 1062.5,352.0 Z M 1807.5,352.0 L 1932.0,351.5 L 1950.5,373.0 L 1950.5,381.0 L 1925.5,441.0 L 1906.0,456.5 L 1887.5,457.0 L 1962.5,566.0 L 1961.0,567.5 L 1880.0,542.5 L 1866.0,540.5 L 1817.0,471.5 L 1798.0,510.5 L 1737.0,511.5 L 1734.5,510.0 L 1737.5,499.0 L 1743.5,489.0 L 1770.5,425.0 L 1804.5,354.0 L 1807.5,352.0 Z M 1981.5,352.0 L 2119.0,351.5 L 2121.5,353.0 L 2093.0,402.5 L 2013.5,405.0 L 2077.0,406.5 L 2091.5,425.0 L 2080.5,454.0 L 2063.5,490.0 L 2043.0,510.5 L 1929.0,510.5 L 1911.5,486.0 L 1913.5,476.0 L 1918.5,464.0 L 1922.0,460.5 L 2012.0,461.5 L 2014.5,459.0 L 2015.0,455.5 L 1944.0,455.5 L 1930.5,438.0 L 1961.5,370.0 L 1981.5,352.0 Z M 2127.5,352.0 L 2278.0,351.5 L 2279.5,353.0 L 2249.0,402.5 L 2201.5,405.0 L 2202.0,406.5 L 2239.0,406.5 L 2240.5,408.0 L 2214.0,454.5 L 2182.0,455.5 L 2164.5,459.0 L 2186.0,461.5 L 2239.5,462.0 L 2239.5,466.0 L 2234.5,475.0 L 2211.0,511.5 L 2057.5,510.0 L 2084.5,453.0 L 2106.5,396.0 L 2127.5,352.0 Z M 1845.0,401.5 L 1842.0,411.5 L 1874.0,412.5 L 1879.5,403.0 L 1879.0,401.5 L 1845.0,401.5 Z" fill-rule="evenodd" stroke-linejoin="miter"/></defs><use href="#w" fill="#06162d" stroke="#00cfff" stroke-width="11"/><use href="#w" fill="url(#c)" stroke="#243341" stroke-width="5"/><use href="#w" fill="none" stroke="#e9fbff" stroke-width="1.5" opacity=".76"/></svg>