<svg xmlns="http://www.w3.org/2000/svg" viewBox="1122 150 658 517" role="img" aria-label="VectisVerse publisher mark"><defs><linearGradient id="c" x1="0" y1="0" x2="0" y2="1"><stop offset="0" stop-color="#fff"/><stop offset=".16" stop-color="#cfd5dc"/><stop offset=".34" stop-color="#fff"/><stop offset=".54" stop-color="#7e8791"/><stop offset=".72" stop-color="#2c333b"/><stop offset=".86" stop-color="#dfe4e8"/><stop offset="1" stop-color="#707984"/></linearGradient><path id="v" d="M 1732.5,185.0 L 1735.5,218.0 L 1744.5,222.0 L 1744.5,243.0 L 1742.0,245.5 L 1736.0,245.5 L 1734.5,251.0 L 1733.5,278.0 L 1730.5,248.0 L 1718.0,247.5 L 1701.5,272.0 L 1673.0,321.5 L 1629.0,321.5 L 1534.5,386.0 L 1467.0,630.5 L 1377.0,631.5 L 1375.5,630.0 L 1275.5,450.0 L 1239.5,389.0 L 1178.5,275.0 L 1156.5,240.0 L 1157.0,236.5 L 1315.0,236.5 L 1437.0,454.5 L 1576.0,236.5 L 1710.0,236.5 L 1711.0,234.5 L 1703.0,233.5 L 1637.5,232.0 L 1716.0,229.5 L 1720.0,221.5 L 1730.5,217.0 L 1732.5,185.0 Z" fill-rule="evenodd" stroke-linejoin="miter"/></defs><use href="#v" fill="#06162d" stroke="#00cfff" stroke-width="11"/><use href="#v" fill="url(#c)" stroke="#243341" stroke-width="5"/><use href="#v" fill="none" stroke="#e9fbff" stroke-width="1.5" opacity=".76"/></svg>