<?xml version="1.0" encoding="UTF-8"?>
<svg xmlns="http://www.w3.org/2000/svg" width="1200" height="760" viewBox="0 0 1200 760">
<defs>
<linearGradient id="sky" x1="0" y1="0" x2="0" y2="1">
<stop offset="0" stop-color="#6176a5"/><stop offset=".55" stop-color="#b7bfd2"/><stop offset="1" stop-color="#ead4a6"/></linearGradient>
<linearGradient id="ground" x1="0" y1="0" x2="0" y2="1">
<stop offset="0" stop-color="#68734d"/><stop offset="1" stop-color="#2d3526"/></linearGradient>
<linearGradient id="stone" x1="0" y1="0" x2="1" y2="1">
<stop offset="0" stop-color="#bdb8ae"/><stop offset="1" stop-color="#5d5a56"/></linearGradient>
<filter id="paper"><feTurbulence type="fractalNoise" baseFrequency=".45" numOctaves="3" seed="8"/><feComponentTransfer><feFuncA type="table" tableValues="0 .08"/></feComponentTransfer></filter>
</defs>

<g id="01_BACKGROUND"><rect width="1200" height="760" fill="#0e0f12"/></g>
<g id="02_SKY"><rect x="8" y="8" width="1184" height="430" fill="url(#sky)"/><circle cx="930" cy="120" r="70" fill="#fff2c5" opacity=".6"/></g>
<g id="03_CLOUDS" fill="#fff" opacity=".25">
<path d="M90 130c60-50 150-45 190 10 45-25 100-20 125 20-90 15-220 18-315 8z"/>
<path d="M720 90c50-40 120-35 150 8 40-22 90-18 115 18-82 14-190 16-265 7z"/>
</g>
<g id="04_DISTANT_HILLS" fill="#465046"><path d="M0 390c180-80 350-70 540-10 180 55 380 40 660 5v125H0z"/></g>
<g id="05_GROUNDS"><rect x="8" y="405" width="1184" height="347" fill="url(#ground)"/></g>

<g id="06_CASTLE" stroke="#232323" stroke-width="8" fill="url(#stone)">
<rect x="380" y="220" width="440" height="260"/>
<rect x="330" y="180" width="90" height="300"/>
<rect x="780" y="180" width="90" height="300"/>
<rect x="485" y="140" width="80" height="340"/>
<rect x="635" y="140" width="80" height="340"/>
<path d="M380 220h440"/>
<rect x="560" y="330" width="80" height="150" fill="#222"/>
</g>

<g id="07_BATTLEMENTS" fill="#9d988f">
<g>
<rect x="330" y="160" width="18" height="20"/><rect x="360" y="160" width="18" height="20"/><rect x="390" y="160" width="18" height="20"/>
<rect x="485" y="120" width="18" height="20"/><rect x="515" y="120" width="18" height="20"/><rect x="545" y="120" width="18" height="20"/>
<rect x="635" y="120" width="18" height="20"/><rect x="665" y="120" width="18" height="20"/><rect x="695" y="120" width="18" height="20"/>
<rect x="780" y="160" width="18" height="20"/><rect x="810" y="160" width="18" height="20"/><rect x="840" y="160" width="18" height="20"/>
</g></g>

<g id="08_FLAGS">
<path d="M525 120v-55" stroke="#333" stroke-width="5"/><path d="M675 120v-55" stroke="#333" stroke-width="5"/>
<path d="M525 70l40 10-40 10z" fill="#7d3bb2"/><path d="M675 70l40 10-40 10z" fill="#b23b3b"/>
</g>

<g id="09_BRAND_PANEL">
<rect x="120" y="120" width="190" height="250" rx="10" fill="#efe7d5" stroke="#333" stroke-width="8"/>
<text x="215" y="165" text-anchor="middle" font-family="Impact" font-size="28">CASTLE</text>
<text x="215" y="198" text-anchor="middle" font-family="Impact" font-size="28">EXPERIENCE</text>
<circle cx="215" cy="260" r="55" fill="#b58a4a" stroke="#333" stroke-width="6"/>
<path d="M185 285h60M200 240h30M195 225l20-18 20 18" stroke="#333" stroke-width="5" fill="none"/>
<rect x="150" y="330" width="130" height="18" fill="#6f8b48"/>
</g>

<g id="10_PATH">
<path d="M600 760C580 650 560 560 600 480" fill="none" stroke="#d7c38d" stroke-width="30"/>
<path d="M600 760C580 650 560 560 600 480" fill="none" stroke="#8e7a49" stroke-width="4" stroke-dasharray="12 10"/>
</g>

<g id="11_TREES" fill="#223022">
<circle cx="250" cy="470" r="45"/><rect x="245" y="470" width="10" height="60"/>
<circle cx="930" cy="470" r="45"/><rect x="925" y="470" width="10" height="60"/>
</g>

<g id="12_TORCHES">
<rect x="520" y="360" width="6" height="30" fill="#333"/><circle cx="523" cy="355" r="10" fill="#f6aa49" opacity=".7"/>
<rect x="674" y="360" width="6" height="30" fill="#333"/><circle cx="677" cy="355" r="10" fill="#f6aa49" opacity=".7"/>
</g>

<g id="13_SPARKS" fill="#7d3bb2">
<path d="M930 220l8 18 20 3-16 13 4 19-16-11-16 11 5-19-16-13 20-3z"/>
<path d="M250 430l8 18 20 3-16 13 4 19-16-11-16 11 5-19-16-13 20-3z"/>
</g>

<g id="14_ATMOSPHERE">
<rect x="8" y="8" width="1184" height="744" fill="#6a3b79" opacity=".03"/>
<rect x="8" y="8" width="1184" height="744" filter="url(#paper)" opacity=".5"/>
</g>

<g id="15_FRAME">
<rect x="8" y="8" width="1184" height="744" fill="none" stroke="#111" stroke-width="16"/>
<rect x="22" y="22" width="1156" height="716" fill="none" stroke="#8f8576" stroke-width="2"/>
</g>
</svg>