<svg xmlns="http://www.w3.org/2000/svg" viewBox="0 0 1600 520" preserveAspectRatio="none"><defs><linearGradient id="fade" x1="0" y1="0" x2="0" y2="1"><stop stop-color="#00D9FF" stop-opacity=".95"/><stop offset="1" stop-color="#0066FF" stop-opacity=".38"/></linearGradient></defs><g stroke="url(#fade)" fill="none"><path d="M800 0L0 520M800 0L160 520M800 0L320 520M800 0L480 520M800 0L640 520M800 0L800 520M800 0L960 520M800 0L1120 520M800 0L1280 520M800 0L1440 520M800 0L1600 520" stroke-width="2"/><path d="M0 26H1600M0 58H1600M0 98H1600M0 148H1600M0 210H1600M0 286H1600M0 380H1600M0 495H1600" stroke-width="1.2" opacity=".82"/></g></svg>