<svg xmlns="http://www.w3.org/2000/svg" viewBox="0 0 1600 900"><defs><filter id="g"><feGaussianBlur stdDeviation="2"/></filter></defs><g fill="#fff" opacity=".85"><circle cx="86" cy="92" r="1.2"/><circle cx="190" cy="148" r=".8"/><circle cx="310" cy="74" r="1.1"/><circle cx="442" cy="126" r=".7"/><circle cx="575" cy="58" r="1.3"/><circle cx="704" cy="142" r=".9"/><circle cx="860" cy="84" r="1.1"/><circle cx="1015" cy="138" r=".8"/><circle cx="1166" cy="62" r="1.3"/><circle cx="1310" cy="120" r=".9"/><circle cx="1480" cy="72" r="1.1"/><circle cx="130" cy="260" r=".9"/><circle cx="280" cy="220" r="1.1"/><circle cx="480" cy="286" r=".8"/><circle cx="682" cy="230" r="1.2"/><circle cx="900" cy="274" r=".9"/><circle cx="1110" cy="210" r="1.1"/><circle cx="1380" cy="286" r=".8"/><circle cx="1510" cy="216" r="1.2"/></g><g fill="#00D9FF" opacity=".8"><circle cx="244" cy="330" r="1.4"/><circle cx="530" cy="355" r="1.2"/><circle cx="796" cy="318" r="1.5"/><circle cx="1050" cy="342" r="1.2"/><circle cx="1292" cy="316" r="1.5"/></g><g stroke="#5FD6FF" stroke-width="1.5" opacity=".9"><path d="M1010 88h26M1023 75v26"/><path d="M295 182h18M304 173v18"/><path d="M1400 156h22M1411 145v22"/></g><g fill="#00D9FF" filter="url(#g)" opacity=".45"><circle cx="1023" cy="88" r="7"/><circle cx="304" cy="182" r="5"/><circle cx="1411" cy="156" r="6"/></g></svg>