<svg xmlns="http://www.w3.org/2000/svg" viewBox="0 0 1600 360" preserveAspectRatio="none"><g fill="none" stroke="#00D9FF" stroke-width="1.4" opacity=".86"><path d="M0 300L0 170 55 122 110 206 165 154 220 232 282 190 340 270 430 300"/><path d="M0 300L55 122M55 122L110 206M55 122L165 154M110 206L165 154M110 206L220 232M165 154L220 232M165 154L282 190M220 232L282 190M220 232L340 270M282 190L340 270M282 190L430 300"/><path d="M1170 300L1240 238 1310 260 1360 174 1410 218 1470 126 1530 186 1600 96 1600 300"/><path d="M1170 300L1240 238M1240 238L1310 260M1240 238L1360 174M1310 260L1360 174M1310 260L1410 218M1360 174L1410 218M1360 174L1470 126M1410 218L1470 126M1410 218L1530 186M1470 126L1530 186M1470 126L1600 96M1530 186L1600 96"/></g><g fill="none" stroke="#0066FF" stroke-width="3" opacity=".45"><path d="M0 302C140 286 300 306 430 300"/><path d="M1170 300C1310 286 1480 310 1600 300"/></g></svg>