<svg xmlns="http://www.w3.org/2000/svg" viewBox="0 0 1600 420" role="img" aria-labelledby="t d"><title id="t">VectisVerse</title><desc id="d">Angular chrome VectisVerse arcade wordmark with central V and blue crystal.</desc><defs><linearGradient id="c" x1="0" y1="0" x2="0" y2="1"><stop offset="0" stop-color="#fff"/><stop offset=".2" stop-color="#cfd8df"/><stop offset=".46" stop-color="#fff"/><stop offset=".68" stop-color="#737f89"/><stop offset="1" stop-color="#202832"/></linearGradient><linearGradient id="b" x1="0" y1="0" x2="1" y2="1"><stop offset="0" stop-color="#4eeaff"/><stop offset=".46" stop-color="#087dff"/><stop offset="1" stop-color="#092cb8"/></linearGradient><filter id="g" x="-30%" y="-60%" width="160%" height="220%"><feGaussianBlur stdDeviation="8" result="z"/><feMerge><feMergeNode in="z"/><feMergeNode in="SourceGraphic"/></feMerge></filter><filter id="s" x="-20%" y="-20%" width="140%" height="160%"><feDropShadow dx="0" dy="8" stdDeviation="5" flood-color="#000" flood-opacity=".9"/></filter></defs><g filter="url(#s)"><g transform="skewX(-8)"><text x="35" y="270" fill="url(#c)" stroke="#111820" stroke-width="6" font-family="Rajdhani,Arial,sans-serif" font-size="245" font-weight="700" letter-spacing="-10">VECTIS</text><text x="1015" y="270" fill="url(#c)" stroke="#111820" stroke-width="6" font-family="Rajdhani,Arial,sans-serif" font-size="245" font-weight="700" letter-spacing="-10">ERSE</text></g><g transform="translate(694 12)"><path d="M8 12 L110 12 L172 250 L232 12 L334 12 L231 368 L111 368 Z" fill="url(#c)" stroke="#101820" stroke-width="10"/><path d="M170 105 L286 181 L170 257 L54 181 Z" fill="url(#b)" stroke="#28d9ff" stroke-width="6" filter="url(#g)"/><path d="M84 181 L170 125 L256 181 L170 237 Z" fill="none" stroke="#b9f6ff" stroke-width="4" opacity=".8"/><path d="M170 86 V276 M42 181 H298" stroke="#28d9ff" stroke-width="2" opacity=".45"/></g></g><text x="800" y="405" text-anchor="middle" fill="#f1f6f9" font-family="Rajdhani,Arial,sans-serif" font-size="38" font-weight="700" letter-spacing="18">ONE ISLAND. <tspan fill="#22d8ff">ENDLESS</tspan> STORIES.</text></svg>